<svg xmlns="http://www.w3.org/2000/svg" version="1.1" width="900" height="500"><defs id="defs"><clipPath id="_ABSTRACT_RENDERER_ID_0"><rect x="161" y="96" width="579" height="309"></rect></clipPath></defs><rect x="0" y="0" width="900" height="500" stroke="none" stroke-width="0" fill="#ffffff"></rect><g><text text-anchor="start" x="161" y="70.9" font-family="Arial" font-size="14" font-weight="bold" stroke="none" stroke-width="0" fill="#000000">Haxe Benchmarks</text><rect x="161" y="59" width="579" height="14" stroke="none" stroke-width="0" fill-opacity="0" fill="#ffffff"></rect></g><g><rect x="754" y="96" width="132" height="60" stroke="none" stroke-width="0" fill-opacity="0" fill="#ffffff"></rect><g><rect x="754" y="96" width="132" height="14" stroke="none" stroke-width="0" fill-opacity="0" fill="#ffffff"></rect><g><text text-anchor="start" x="787" y="107.9" font-family="Arial" font-size="14" stroke="none" stroke-width="0" fill="#222222">cpp</text></g><rect x="754" y="96" width="28" height="14" stroke="none" stroke-width="0" fill="#3366cc"></rect></g><g><rect x="754" y="119" width="132" height="14" stroke="none" stroke-width="0" fill-opacity="0" fill="#ffffff"></rect><g><text text-anchor="start" x="787" y="130.9" font-family="Arial" font-size="14" stroke="none" stroke-width="0" fill="#222222">flash</text></g><rect x="754" y="119" width="28" height="14" stroke="none" stroke-width="0" fill="#dc3912"></rect></g><g><rect x="754" y="142" width="132" height="14" stroke="none" stroke-width="0" fill-opacity="0" fill="#ffffff"></rect><g><text text-anchor="start" x="787" y="153.9" font-family="Arial" font-size="14" stroke="none" stroke-width="0" fill="#222222">js</text></g><rect x="754" y="142" width="28" height="14" stroke="none" stroke-width="0" fill="#ff9900"></rect></g></g><g><rect x="161" y="96" width="579" height="309" stroke="none" stroke-width="0" fill-opacity="0" fill="#ffffff"></rect><g clip-path="url(http://localhost:2001/?cmd=report#_ABSTRACT_RENDERER_ID_0)"><g><rect x="161" y="96" width="1" height="309" stroke="none" stroke-width="0" fill="#cccccc"></rect><rect x="306" y="96" width="1" height="309" stroke="none" stroke-width="0" fill="#cccccc"></rect><rect x="450" y="96" width="1" height="309" stroke="none" stroke-width="0" fill="#cccccc"></rect><rect x="595" y="96" width="1" height="309" stroke="none" stroke-width="0" fill="#cccccc"></rect><rect x="739" y="96" width="1" height="309" stroke="none" stroke-width="0" fill="#cccccc"></rect></g><g><rect x="162" y="106" width="6" height="10" stroke="none" stroke-width="0" fill="#3366cc"></rect><rect x="162" y="158" width="544" height="10" stroke="none" stroke-width="0" fill="#3366cc"></rect><rect x="162" y="209" width="22" height="10" stroke="none" stroke-width="0" fill="#3366cc"></rect><rect x="162" y="260" width="38" height="10" stroke="none" stroke-width="0" fill="#3366cc"></rect><rect x="162" y="312" width="332" height="10" stroke="none" stroke-width="0" fill="#3366cc"></rect><g><rect x="162" y="363" width="553" height="10" stroke="none" stroke-width="0" fill="#3366cc"></rect><rect x="164.5" y="365.5" width="548" height="5" stroke="#ffffff" stroke-width="1" fill-opacity="0" fill="#ffffff"></rect></g><rect x="162" y="117" width="5" height="10" stroke="none" stroke-width="0" fill="#dc3912"></rect><rect x="162" y="169" width="35" height="9" stroke="none" stroke-width="0" fill="#dc3912"></rect><rect x="162" y="220" width="12" height="10" stroke="none" stroke-width="0" fill="#dc3912"></rect><rect x="162" y="271" width="42" height="10" stroke="none" stroke-width="0" fill="#dc3912"></rect><rect x="162" y="323" width="24" height="9" stroke="none" stroke-width="0" fill="#dc3912"></rect><rect x="162" y="374" width="36" height="10" stroke="none" stroke-width="0" fill="#dc3912"></rect><rect x="162" y="128" width="17" height="10" stroke="none" stroke-width="0" fill="#ff9900"></rect><rect x="162" y="179" width="145" height="10" stroke="none" stroke-width="0" fill="#ff9900"></rect><rect x="162" y="231" width="45" height="10" stroke="none" stroke-width="0" fill="#ff9900"></rect><rect x="162" y="282" width="3" height="10" stroke="none" stroke-width="0" fill="#ff9900"></rect><rect x="162" y="333" width="94" height="10" stroke="none" stroke-width="0" fill="#ff9900"></rect><rect x="162" y="385" width="144" height="10" stroke="none" stroke-width="0" fill="#ff9900"></rect></g><g><rect x="161" y="96" width="1" height="309" stroke="none" stroke-width="0" fill="#333333"></rect></g><g><g><path d="M168.56894,111L169.22497,111" stroke="#264d99" stroke-width="1" fill-opacity="0.3" fill="#264d99"></path><path d="M168.56894,110L168.56894,113" stroke="#264d99" stroke-width="1" fill-opacity="0.3" fill="#264d99"></path><path d="M169.22497,110L169.22497,113" stroke="#264d99" stroke-width="1" fill-opacity="0.3" fill="#264d99"></path></g><g><path d="M678.78399,163L735.5985000000001,163" stroke="#264d99" stroke-width="1" fill-opacity="0.3" fill="#264d99"></path><path d="M678.78399,161L678.78399,164" stroke="#264d99" stroke-width="1" fill-opacity="0.3" fill="#264d99"></path><path d="M735.5985000000001,161L735.5985000000001,164" stroke="#264d99" stroke-width="1" fill-opacity="0.3" fill="#264d99"></path></g><g><path d="M183.19523,214L184.59977,214" stroke="#264d99" stroke-width="1" fill-opacity="0.3" fill="#264d99"></path><path d="M183.19523,213L183.19523,215" stroke="#264d99" stroke-width="1" fill-opacity="0.3" fill="#264d99"></path><path d="M184.59977,213L184.59977,215" stroke="#264d99" stroke-width="1" fill-opacity="0.3" fill="#264d99"></path></g><g><path d="M198.55269,265L200.89648,265" stroke="#264d99" stroke-width="1" fill-opacity="0.3" fill="#264d99"></path><path d="M198.55269,264L198.55269,267" stroke="#264d99" stroke-width="1" fill-opacity="0.3" fill="#264d99"></path><path d="M200.89648,264L200.89648,267" stroke="#264d99" stroke-width="1" fill-opacity="0.3" fill="#264d99"></path></g><g><path d="M492.76047,317L496.10709,317" stroke="#264d99" stroke-width="1" fill-opacity="0.3" fill="#264d99"></path><path d="M492.76047,315L492.76047,318" stroke="#264d99" stroke-width="1" fill-opacity="0.3" fill="#264d99"></path><path d="M496.10709,315L496.10709,318" stroke="#264d99" stroke-width="1" fill-opacity="0.3" fill="#264d99"></path></g><g><path d="M709.78502,368L718.65732,368" stroke="#264d99" stroke-width="1" fill-opacity="0.3" fill="#264d99"></path><path d="M709.78502,367L709.78502,369" stroke="#264d99" stroke-width="1" fill-opacity="0.3" fill="#264d99"></path><path d="M718.65732,367L718.65732,369" stroke="#264d99" stroke-width="1" fill-opacity="0.3" fill="#264d99"></path></g><g><path d="M167.05747,122L167.1644,122" stroke="#a52b0e" stroke-width="1" fill-opacity="0.3" fill="#a52b0e"></path><path d="M167.05747,121L167.05747,124" stroke="#a52b0e" stroke-width="1" fill-opacity="0.3" fill="#a52b0e"></path><path d="M167.1644,121L167.1644,124" stroke="#a52b0e" stroke-width="1" fill-opacity="0.3" fill="#a52b0e"></path></g><g><path d="M196.74355,173L198.5498,173" stroke="#a52b0e" stroke-width="1" fill-opacity="0.3" fill="#a52b0e"></path><path d="M196.74355,172L196.74355,175" stroke="#a52b0e" stroke-width="1" fill-opacity="0.3" fill="#a52b0e"></path><path d="M198.5498,172L198.5498,175" stroke="#a52b0e" stroke-width="1" fill-opacity="0.3" fill="#a52b0e"></path></g><g><path d="M174.45876,225L174.69574,225" stroke="#a52b0e" stroke-width="1" fill-opacity="0.3" fill="#a52b0e"></path><path d="M174.45876,223L174.45876,226" stroke="#a52b0e" stroke-width="1" fill-opacity="0.3" fill="#a52b0e"></path><path d="M174.69574,223L174.69574,226" stroke="#a52b0e" stroke-width="1" fill-opacity="0.3" fill="#a52b0e"></path></g><g><path d="M203.38188,276L205.95976000000002,276" stroke="#a52b0e" stroke-width="1" fill-opacity="0.3" fill="#a52b0e"></path><path d="M203.38188,275L203.38188,278" stroke="#a52b0e" stroke-width="1" fill-opacity="0.3" fill="#a52b0e"></path><path d="M205.95976000000002,275L205.95976000000002,278" stroke="#a52b0e" stroke-width="1" fill-opacity="0.3" fill="#a52b0e"></path></g><g><path d="M186.20083,327L186.84819,327" stroke="#a52b0e" stroke-width="1" fill-opacity="0.3" fill="#a52b0e"></path><path d="M186.20083,326L186.20083,329" stroke="#a52b0e" stroke-width="1" fill-opacity="0.3" fill="#a52b0e"></path><path d="M186.84819,326L186.84819,329" stroke="#a52b0e" stroke-width="1" fill-opacity="0.3" fill="#a52b0e"></path></g><g><circle cx="198.08162" cy="379" r="3" stroke="#a52b0e" stroke-width="1" fill-opacity="0.3" fill="#a52b0e"></circle><path d="M198.08162,377L198.08162,380" stroke="#a52b0e" stroke-width="1" fill-opacity="0.3" fill="#a52b0e"></path><path d="M198.08162,377L198.08162,380" stroke="#a52b0e" stroke-width="1" fill-opacity="0.3" fill="#a52b0e"></path></g><g><path d="M177.99612,133L180.17807,133" stroke="#bf7300" stroke-width="1" fill-opacity="0.3" fill="#bf7300"></path><path d="M177.99612,132L177.99612,134" stroke="#bf7300" stroke-width="1" fill-opacity="0.3" fill="#bf7300"></path><path d="M180.17807,132L180.17807,134" stroke="#bf7300" stroke-width="1" fill-opacity="0.3" fill="#bf7300"></path></g><g><path d="M293.19151999999997,184L318.01084000000003,184" stroke="#bf7300" stroke-width="1" fill-opacity="0.3" fill="#bf7300"></path><path d="M293.19151999999997,183L293.19151999999997,186" stroke="#bf7300" stroke-width="1" fill-opacity="0.3" fill="#bf7300"></path><path d="M318.01084000000003,183L318.01084000000003,186" stroke="#bf7300" stroke-width="1" fill-opacity="0.3" fill="#bf7300"></path></g><g><path d="M198.52957,236L215.58924000000002,236" stroke="#bf7300" stroke-width="1" fill-opacity="0.3" fill="#bf7300"></path><path d="M198.52957,234L198.52957,237" stroke="#bf7300" stroke-width="1" fill-opacity="0.3" fill="#bf7300"></path><path d="M215.58924000000002,234L215.58924000000002,237" stroke="#bf7300" stroke-width="1" fill-opacity="0.3" fill="#bf7300"></path></g><g><path d="M165.88413,287L165.99973,287" stroke="#bf7300" stroke-width="1" fill-opacity="0.3" fill="#bf7300"></path><path d="M165.88413,286L165.88413,288" stroke="#bf7300" stroke-width="1" fill-opacity="0.3" fill="#bf7300"></path><path d="M165.99973,286L165.99973,288" stroke="#bf7300" stroke-width="1" fill-opacity="0.3" fill="#bf7300"></path></g><g><path d="M240.46058,338L268.29706,338" stroke="#bf7300" stroke-width="1" fill-opacity="0.3" fill="#bf7300"></path><path d="M240.46058,337L240.46058,340" stroke="#bf7300" stroke-width="1" fill-opacity="0.3" fill="#bf7300"></path><path d="M268.29706,337L268.29706,340" stroke="#bf7300" stroke-width="1" fill-opacity="0.3" fill="#bf7300"></path></g><g><path d="M291.53266,390L316.62364,390" stroke="#bf7300" stroke-width="1" fill-opacity="0.3" fill="#bf7300"></path><path d="M291.53266,388L291.53266,391" stroke="#bf7300" stroke-width="1" fill-opacity="0.3" fill="#bf7300"></path><path d="M316.62364,388L316.62364,391" stroke="#bf7300" stroke-width="1" fill-opacity="0.3" fill="#bf7300"></path></g></g><g><rect x="168" y="111" width="12" height="1" stroke="none" stroke-width="0" fill="#999999"></rect><rect x="706" y="163" width="12" height="1" stroke="none" stroke-width="0" fill="#999999"></rect><rect x="184" y="214" width="12" height="1" stroke="none" stroke-width="0" fill="#999999"></rect><rect x="200" y="265" width="12" height="1" stroke="none" stroke-width="0" fill="#999999"></rect><rect x="494" y="317" width="12" height="1" stroke="none" stroke-width="0" fill="#999999"></rect><rect x="715" y="368" width="12" height="1" stroke="none" stroke-width="0" fill="#999999"></rect><rect x="167" y="122" width="12" height="1" stroke="none" stroke-width="0" fill="#999999"></rect><rect x="197" y="173" width="12" height="1" stroke="none" stroke-width="0" fill="#999999"></rect><rect x="174" y="225" width="12" height="1" stroke="none" stroke-width="0" fill="#999999"></rect><rect x="204" y="276" width="12" height="1" stroke="none" stroke-width="0" fill="#999999"></rect><rect x="186" y="327" width="12" height="1" stroke="none" stroke-width="0" fill="#999999"></rect><rect x="198" y="379" width="12" height="1" stroke="none" stroke-width="0" fill="#999999"></rect><rect x="179" y="133" width="12" height="1" stroke="none" stroke-width="0" fill="#999999"></rect><rect x="307" y="184" width="12" height="1" stroke="none" stroke-width="0" fill="#999999"></rect><rect x="207" y="236" width="12" height="1" stroke="none" stroke-width="0" fill="#999999"></rect><rect x="165" y="287" width="12" height="1" stroke="none" stroke-width="0" fill="#999999"></rect><rect x="256" y="338" width="12" height="1" stroke="none" stroke-width="0" fill="#999999"></rect><rect x="306" y="390" width="12" height="1" stroke="none" stroke-width="0" fill="#999999"></rect></g></g><g></g><g><g><text text-anchor="middle" x="161.5" y="425.9" font-family="Arial" font-size="14" stroke="none" stroke-width="0" fill="#444444">0</text></g><g><text text-anchor="middle" x="306" y="425.9" font-family="Arial" font-size="14" stroke="none" stroke-width="0" fill="#444444">50K</text></g><g><text text-anchor="middle" x="450.5" y="425.9" font-family="Arial" font-size="14" stroke="none" stroke-width="0" fill="#444444">100K</text></g><g><text text-anchor="middle" x="595" y="425.9" font-family="Arial" font-size="14" stroke="none" stroke-width="0" fill="#444444">150K</text></g><g><text text-anchor="middle" x="739.5" y="425.9" font-family="Arial" font-size="14" stroke="none" stroke-width="0" fill="#444444">200K</text></g><g><text text-anchor="end" x="147" y="127.06666666666668" font-family="Arial" font-size="14" stroke="none" stroke-width="0" fill="#222222">edge</text></g><g><text text-anchor="end" x="147" y="178.4" font-family="Arial" font-size="14" stroke="none" stroke-width="0" fill="#222222">ecx_map_fast</text></g><g><text text-anchor="end" x="147" y="229.73333333333335" font-family="Arial" font-size="14" stroke="none" stroke-width="0" fill="#222222">hxe</text></g><g><text text-anchor="end" x="147" y="281.06666666666666" font-family="Arial" font-size="14" stroke="none" stroke-width="0" fill="#222222">ash</text></g><g><text text-anchor="end" x="147" y="332.4" font-family="Arial" font-size="14" stroke="none" stroke-width="0" fill="#222222">ecx</text></g><g><text text-anchor="end" x="147" y="383.73333333333335" font-family="Arial" font-size="14" stroke="none" stroke-width="0" fill="#222222">ecx_map_test</text></g></g><g><g><g><rect x="177.5" y="103.5" width="29" height="16" stroke="none" stroke-width="0" fill-opacity="0" fill="#ffffff"></rect><g><text text-anchor="start" x="180" y="115.9" font-family="Arial" font-size="14" stroke="#ffffff" stroke-width="3" fill="#3366cc" aria-hidden="true">cpp</text><text text-anchor="start" x="180" y="115.9" font-family="Arial" font-size="14" stroke="none" stroke-width="0" fill="#3366cc">cpp</text></g><rect x="180" y="104" width="23" height="14" stroke="none" stroke-width="0" fill-opacity="0" fill="#ffffff"></rect></g></g><g><g><rect x="715.5" y="155.5" width="29" height="16" stroke="none" stroke-width="0" fill-opacity="0" fill="#ffffff"></rect><g><text text-anchor="start" x="718" y="167.9" font-family="Arial" font-size="14" stroke="#ffffff" stroke-width="3" fill="#3366cc" aria-hidden="true">cpp</text><text text-anchor="start" x="718" y="167.9" font-family="Arial" font-size="14" stroke="none" stroke-width="0" fill="#3366cc">cpp</text></g><rect x="718" y="156" width="23" height="14" stroke="none" stroke-width="0" fill-opacity="0" fill="#ffffff"></rect></g></g><g><g><rect x="193.5" y="206.5" width="29" height="16" stroke="none" stroke-width="0" fill-opacity="0" fill="#ffffff"></rect><g><text text-anchor="start" x="196" y="218.9" font-family="Arial" font-size="14" stroke="#ffffff" stroke-width="3" fill="#3366cc" aria-hidden="true">cpp</text><text text-anchor="start" x="196" y="218.9" font-family="Arial" font-size="14" stroke="none" stroke-width="0" fill="#3366cc">cpp</text></g><rect x="196" y="207" width="23" height="14" stroke="none" stroke-width="0" fill-opacity="0" fill="#ffffff"></rect></g></g><g><g><rect x="209.5" y="257.5" width="29" height="16" stroke="none" stroke-width="0" fill-opacity="0" fill="#ffffff"></rect><g><text text-anchor="start" x="212" y="269.9" font-family="Arial" font-size="14" stroke="#ffffff" stroke-width="3" fill="#3366cc" aria-hidden="true">cpp</text><text text-anchor="start" x="212" y="269.9" font-family="Arial" font-size="14" stroke="none" stroke-width="0" fill="#3366cc">cpp</text></g><rect x="212" y="258" width="23" height="14" stroke="none" stroke-width="0" fill-opacity="0" fill="#ffffff"></rect></g></g><g><g><rect x="503.5" y="309.5" width="29" height="16" stroke="none" stroke-width="0" fill-opacity="0" fill="#ffffff"></rect><g><text text-anchor="start" x="506" y="321.9" font-family="Arial" font-size="14" stroke="#ffffff" stroke-width="3" fill="#3366cc" aria-hidden="true">cpp</text><text text-anchor="start" x="506" y="321.9" font-family="Arial" font-size="14" stroke="none" stroke-width="0" fill="#3366cc">cpp</text></g><rect x="506" y="310" width="23" height="14" stroke="none" stroke-width="0" fill-opacity="0" fill="#ffffff"></rect></g></g><g><g><rect x="724.5" y="360.5" width="29" height="16" stroke="none" stroke-width="0" fill-opacity="0" fill="#ffffff"></rect><g><text text-anchor="start" x="727" y="372.9" font-family="Arial" font-size="14" stroke="#ffffff" stroke-width="3" fill="#3366cc" aria-hidden="true">cpp</text><text text-anchor="start" x="727" y="372.9" font-family="Arial" font-size="14" stroke="none" stroke-width="0" fill="#3366cc">cpp</text></g><rect x="727" y="361" width="23" height="14" stroke="none" stroke-width="0" fill-opacity="0" fill="#ffffff"></rect></g></g><g><g><rect x="176.5" y="114.5" width="36" height="16" stroke="none" stroke-width="0" fill-opacity="0" fill="#ffffff"></rect><g><text text-anchor="start" x="179" y="126.9" font-family="Arial" font-size="14" stroke="#ffffff" stroke-width="3" fill="#dc3912" aria-hidden="true">flash</text><text text-anchor="start" x="179" y="126.9" font-family="Arial" font-size="14" stroke="none" stroke-width="0" fill="#dc3912">flash</text></g><rect x="179" y="115" width="30" height="14" stroke="none" stroke-width="0" fill-opacity="0" fill="#ffffff"></rect></g></g><g><g><rect x="206.5" y="165.5" width="36" height="16" stroke="none" stroke-width="0" fill-opacity="0" fill="#ffffff"></rect><g><text text-anchor="start" x="209" y="177.9" font-family="Arial" font-size="14" stroke="#ffffff" stroke-width="3" fill="#dc3912" aria-hidden="true">flash</text><text text-anchor="start" x="209" y="177.9" font-family="Arial" font-size="14" stroke="none" stroke-width="0" fill="#dc3912">flash</text></g><rect x="209" y="166" width="30" height="14" stroke="none" stroke-width="0" fill-opacity="0" fill="#ffffff"></rect></g></g><g><g><rect x="183.5" y="217.5" width="36" height="16" stroke="none" stroke-width="0" fill-opacity="0" fill="#ffffff"></rect><g><text text-anchor="start" x="186" y="229.9" font-family="Arial" font-size="14" stroke="#ffffff" stroke-width="3" fill="#dc3912" aria-hidden="true">flash</text><text text-anchor="start" x="186" y="229.9" font-family="Arial" font-size="14" stroke="none" stroke-width="0" fill="#dc3912">flash</text></g><rect x="186" y="218" width="30" height="14" stroke="none" stroke-width="0" fill-opacity="0" fill="#ffffff"></rect></g></g><g><g><rect x="213.5" y="268.5" width="36" height="16" stroke="none" stroke-width="0" fill-opacity="0" fill="#ffffff"></rect><g><text text-anchor="start" x="216" y="280.9" font-family="Arial" font-size="14" stroke="#ffffff" stroke-width="3" fill="#dc3912" aria-hidden="true">flash</text><text text-anchor="start" x="216" y="280.9" font-family="Arial" font-size="14" stroke="none" stroke-width="0" fill="#dc3912">flash</text></g><rect x="216" y="269" width="30" height="14" stroke="none" stroke-width="0" fill-opacity="0" fill="#ffffff"></rect></g></g><g><g><rect x="195.5" y="319.5" width="36" height="16" stroke="none" stroke-width="0" fill-opacity="0" fill="#ffffff"></rect><g><text text-anchor="start" x="198" y="331.9" font-family="Arial" font-size="14" stroke="#ffffff" stroke-width="3" fill="#dc3912" aria-hidden="true">flash</text><text text-anchor="start" x="198" y="331.9" font-family="Arial" font-size="14" stroke="none" stroke-width="0" fill="#dc3912">flash</text></g><rect x="198" y="320" width="30" height="14" stroke="none" stroke-width="0" fill-opacity="0" fill="#ffffff"></rect></g></g><g><g><rect x="207.5" y="371.5" width="36" height="16" stroke="none" stroke-width="0" fill-opacity="0" fill="#ffffff"></rect><g><text text-anchor="start" x="210" y="383.9" font-family="Arial" font-size="14" stroke="#ffffff" stroke-width="3" fill="#dc3912" aria-hidden="true">flash</text><text text-anchor="start" x="210" y="383.9" font-family="Arial" font-size="14" stroke="none" stroke-width="0" fill="#dc3912">flash</text></g><rect x="210" y="372" width="30" height="14" stroke="none" stroke-width="0" fill-opacity="0" fill="#ffffff"></rect></g></g><g><g><rect x="188.5" y="125.5" width="16" height="16" stroke="none" stroke-width="0" fill-opacity="0" fill="#ffffff"></rect><g><text text-anchor="start" x="191" y="137.9" font-family="Arial" font-size="14" stroke="#ffffff" stroke-width="3" fill="#ff9900" aria-hidden="true">js</text><text text-anchor="start" x="191" y="137.9" font-family="Arial" font-size="14" stroke="none" stroke-width="0" fill="#ff9900">js</text></g><rect x="191" y="126" width="10" height="14" stroke="none" stroke-width="0" fill-opacity="0" fill="#ffffff"></rect></g></g><g><g><rect x="316.5" y="176.5" width="16" height="16" stroke="none" stroke-width="0" fill-opacity="0" fill="#ffffff"></rect><g><text text-anchor="start" x="319" y="188.9" font-family="Arial" font-size="14" stroke="#ffffff" stroke-width="3" fill="#ff9900" aria-hidden="true">js</text><text text-anchor="start" x="319" y="188.9" font-family="Arial" font-size="14" stroke="none" stroke-width="0" fill="#ff9900">js</text></g><rect x="319" y="177" width="10" height="14" stroke="none" stroke-width="0" fill-opacity="0" fill="#ffffff"></rect></g></g><g><g><rect x="216.5" y="228.5" width="16" height="16" stroke="none" stroke-width="0" fill-opacity="0" fill="#ffffff"></rect><g><text text-anchor="start" x="219" y="240.9" font-family="Arial" font-size="14" stroke="#ffffff" stroke-width="3" fill="#ff9900" aria-hidden="true">js</text><text text-anchor="start" x="219" y="240.9" font-family="Arial" font-size="14" stroke="none" stroke-width="0" fill="#ff9900">js</text></g><rect x="219" y="229" width="10" height="14" stroke="none" stroke-width="0" fill-opacity="0" fill="#ffffff"></rect></g></g><g><g><rect x="174.5" y="279.5" width="16" height="16" stroke="none" stroke-width="0" fill-opacity="0" fill="#ffffff"></rect><g><text text-anchor="start" x="177" y="291.9" font-family="Arial" font-size="14" stroke="#ffffff" stroke-width="3" fill="#ff9900" aria-hidden="true">js</text><text text-anchor="start" x="177" y="291.9" font-family="Arial" font-size="14" stroke="none" stroke-width="0" fill="#ff9900">js</text></g><rect x="177" y="280" width="10" height="14" stroke="none" stroke-width="0" fill-opacity="0" fill="#ffffff"></rect></g></g><g><g><rect x="265.5" y="330.5" width="16" height="16" stroke="none" stroke-width="0" fill-opacity="0" fill="#ffffff"></rect><g><text text-anchor="start" x="268" y="342.9" font-family="Arial" font-size="14" stroke="#ffffff" stroke-width="3" fill="#ff9900" aria-hidden="true">js</text><text text-anchor="start" x="268" y="342.9" font-family="Arial" font-size="14" stroke="none" stroke-width="0" fill="#ff9900">js</text></g><rect x="268" y="331" width="10" height="14" stroke="none" stroke-width="0" fill-opacity="0" fill="#ffffff"></rect></g></g><g><g><rect x="315.5" y="382.5" width="16" height="16" stroke="none" stroke-width="0" fill-opacity="0" fill="#ffffff"></rect><g><text text-anchor="start" x="318" y="394.9" font-family="Arial" font-size="14" stroke="#ffffff" stroke-width="3" fill="#ff9900" aria-hidden="true">js</text><text text-anchor="start" x="318" y="394.9" font-family="Arial" font-size="14" stroke="none" stroke-width="0" fill="#ff9900">js</text></g><rect x="318" y="383" width="10" height="14" stroke="none" stroke-width="0" fill-opacity="0" fill="#ffffff"></rect></g></g></g></g><g><g><text text-anchor="middle" x="450.5" y="468.9" font-family="Arial" font-size="14" font-style="italic" stroke="none" stroke-width="0" fill="#222222">Iterations per Second</text><rect x="161" y="457" width="579" height="14" stroke="none" stroke-width="0" fill-opacity="0" fill="#ffffff"></rect></g><g><text text-anchor="middle" x="34.9" y="250.5" font-family="Arial" font-size="14" font-style="italic" transform="rotate(-90 34.9 250.5)" stroke="none" stroke-width="0" fill="#222222">Suite</text><path d="M22.99999999999999,405L23.000000000000007,96L37.00000000000001,96L36.99999999999999,405Z" stroke="none" stroke-width="0" fill-opacity="0" fill="#ffffff"></path></g></g><g></g></svg>